<?xml version="1.0" encoding="utf-8" ?>
<svg baseProfile="full" height="364px" version="1.1" viewBox="0 0 387 364" width="387px" xmlns="http://www.w3.org/2000/svg" xmlns:ev="http://www.w3.org/2001/xml-events" xmlns:xlink="http://www.w3.org/1999/xlink"><defs /><path d="M 175 20 L 174 21 L 166 21 L 165 22 L 160 22 L 159 23 L 155 23 L 154 24 L 151 24 L 150 25 L 147 25 L 146 26 L 144 26 L 143 27 L 140 27 L 139 28 L 138 28 L 137 29 L 135 29 L 134 30 L 133 30 L 132 31 L 131 31 L 130 32 L 129 32 L 127 34 L 126 34 L 121 39 L 121 41 L 120 42 L 120 52 L 119 53 L 119 57 L 118 58 L 118 61 L 117 62 L 117 66 L 116 67 L 116 86 L 117 87 L 117 91 L 116 92 L 110 92 L 109 93 L 101 93 L 100 94 L 96 94 L 95 95 L 91 95 L 90 96 L 87 96 L 86 97 L 84 97 L 83 98 L 81 98 L 80 99 L 79 99 L 78 100 L 76 100 L 75 101 L 74 101 L 72 103 L 71 103 L 70 104 L 69 104 L 62 111 L 62 112 L 61 113 L 61 114 L 60 115 L 60 121 L 59 122 L 59 145 L 58 146 L 58 174 L 57 175 L 57 188 L 56 189 L 53 189 L 52 190 L 49 190 L 48 191 L 44 191 L 43 192 L 41 192 L 40 193 L 39 193 L 38 194 L 37 194 L 36 195 L 35 195 L 34 196 L 33 196 L 31 198 L 30 198 L 26 202 L 26 203 L 24 205 L 24 207 L 23 208 L 23 213 L 22 214 L 22 237 L 21 238 L 21 255 L 20 256 L 20 294 L 21 295 L 21 302 L 22 303 L 22 309 L 23 310 L 23 313 L 24 314 L 24 315 L 28 319 L 29 319 L 31 321 L 32 321 L 33 322 L 34 322 L 35 323 L 36 323 L 37 324 L 38 324 L 39 325 L 41 325 L 42 326 L 43 326 L 44 327 L 46 327 L 47 328 L 50 328 L 51 329 L 53 329 L 54 330 L 57 330 L 58 331 L 61 331 L 62 332 L 65 332 L 66 333 L 70 333 L 71 334 L 76 334 L 77 335 L 82 335 L 83 336 L 87 336 L 88 337 L 95 337 L 96 338 L 102 338 L 103 339 L 111 339 L 112 340 L 123 340 L 124 341 L 139 341 L 140 342 L 167 342 L 168 343 L 174 343 L 175 342 L 179 342 L 180 343 L 191 343 L 192 342 L 218 342 L 219 341 L 233 341 L 234 340 L 244 340 L 245 339 L 252 339 L 253 338 L 261 338 L 262 337 L 269 337 L 270 336 L 276 336 L 277 335 L 283 335 L 284 334 L 288 334 L 289 333 L 292 333 L 293 332 L 298 332 L 299 331 L 302 331 L 303 330 L 306 330 L 307 329 L 310 329 L 311 328 L 320 328 L 321 327 L 329 327 L 330 326 L 335 326 L 336 325 L 339 325 L 340 324 L 342 324 L 343 323 L 344 323 L 345 322 L 347 322 L 348 321 L 349 321 L 351 319 L 352 319 L 354 317 L 355 317 L 360 312 L 360 311 L 362 309 L 362 308 L 363 307 L 363 306 L 364 305 L 364 303 L 365 302 L 365 299 L 366 298 L 366 290 L 365 289 L 365 260 L 366 259 L 366 230 L 365 229 L 365 220 L 364 219 L 364 216 L 363 215 L 363 213 L 362 212 L 362 210 L 360 208 L 360 207 L 359 206 L 359 205 L 352 198 L 351 198 L 350 197 L 349 197 L 348 196 L 347 196 L 346 195 L 344 195 L 343 194 L 340 194 L 339 193 L 335 193 L 334 192 L 330 192 L 328 190 L 329 189 L 328 188 L 328 187 L 329 186 L 329 164 L 330 163 L 330 143 L 331 142 L 331 130 L 330 129 L 330 121 L 329 120 L 329 117 L 328 116 L 328 113 L 327 112 L 327 111 L 325 109 L 325 108 L 322 105 L 321 105 L 319 103 L 318 103 L 317 102 L 316 102 L 315 101 L 314 101 L 313 100 L 310 100 L 309 99 L 307 99 L 306 98 L 301 98 L 300 97 L 295 97 L 294 96 L 289 96 L 288 95 L 284 95 L 283 94 L 279 94 L 278 93 L 275 93 L 274 92 L 271 92 L 270 91 L 270 86 L 269 85 L 269 81 L 268 80 L 268 77 L 267 76 L 267 73 L 266 72 L 266 69 L 265 68 L 265 66 L 264 65 L 264 61 L 263 60 L 263 55 L 262 54 L 262 46 L 261 45 L 261 40 L 260 39 L 260 38 L 259 37 L 259 36 L 256 33 L 255 33 L 253 31 L 252 31 L 251 30 L 250 30 L 249 29 L 248 29 L 247 28 L 245 28 L 244 27 L 242 27 L 241 26 L 238 26 L 237 25 L 234 25 L 233 24 L 230 24 L 229 23 L 225 23 L 224 22 L 219 22 L 218 21 L 213 21 L 212 20 Z M 67 278 L 71 282 L 71 283 L 73 285 L 73 286 L 75 288 L 75 289 L 81 295 L 82 295 L 85 298 L 86 298 L 88 300 L 89 300 L 90 301 L 91 301 L 92 302 L 94 302 L 95 303 L 99 303 L 100 304 L 112 304 L 113 303 L 116 303 L 117 302 L 118 302 L 119 301 L 120 301 L 122 299 L 123 299 L 133 289 L 133 288 L 136 285 L 136 284 L 138 282 L 139 283 L 139 284 L 140 285 L 140 286 L 141 287 L 141 289 L 142 290 L 142 291 L 143 292 L 143 293 L 144 294 L 144 295 L 146 297 L 146 298 L 153 305 L 154 305 L 155 306 L 157 306 L 158 307 L 169 307 L 170 306 L 171 306 L 172 305 L 173 305 L 174 304 L 175 304 L 176 303 L 177 303 L 190 290 L 191 290 L 192 289 L 196 289 L 197 290 L 198 290 L 202 294 L 202 295 L 210 303 L 211 303 L 213 305 L 215 305 L 216 306 L 217 306 L 218 307 L 222 307 L 223 308 L 231 308 L 232 307 L 236 307 L 237 306 L 239 306 L 240 305 L 241 305 L 242 304 L 243 304 L 244 303 L 245 303 L 252 296 L 252 295 L 253 294 L 253 293 L 255 291 L 255 289 L 256 288 L 256 287 L 257 286 L 257 284 L 258 283 L 258 282 L 260 280 L 261 281 L 261 282 L 262 283 L 262 284 L 263 285 L 263 286 L 265 288 L 265 289 L 267 291 L 267 292 L 271 296 L 272 296 L 275 299 L 276 299 L 277 300 L 278 300 L 279 301 L 283 301 L 284 302 L 285 301 L 290 301 L 291 300 L 293 300 L 294 299 L 295 299 L 298 296 L 299 296 L 303 292 L 303 291 L 305 289 L 308 289 L 309 290 L 311 290 L 312 291 L 314 291 L 315 292 L 318 292 L 319 293 L 329 293 L 330 292 L 333 292 L 334 291 L 336 291 L 337 290 L 339 290 L 340 289 L 341 289 L 343 287 L 344 287 L 345 286 L 346 286 L 347 285 L 348 285 L 349 284 L 355 284 L 356 285 L 356 288 L 357 289 L 357 296 L 356 297 L 356 300 L 355 301 L 355 302 L 354 303 L 354 304 L 353 305 L 353 306 L 349 310 L 348 310 L 346 312 L 345 312 L 344 313 L 343 313 L 342 314 L 341 314 L 340 315 L 338 315 L 337 316 L 336 316 L 335 317 L 332 317 L 331 318 L 327 318 L 326 319 L 314 319 L 313 320 L 307 320 L 306 321 L 303 321 L 302 322 L 299 322 L 298 323 L 294 323 L 293 324 L 290 324 L 289 325 L 286 325 L 285 326 L 281 326 L 280 327 L 275 327 L 274 328 L 268 328 L 267 329 L 261 329 L 260 330 L 252 330 L 251 331 L 243 331 L 242 332 L 231 332 L 230 333 L 217 333 L 216 334 L 196 334 L 195 335 L 194 334 L 190 334 L 189 335 L 160 335 L 159 334 L 143 334 L 142 333 L 129 333 L 128 332 L 118 332 L 117 331 L 110 331 L 109 330 L 101 330 L 100 329 L 93 329 L 92 328 L 88 328 L 87 327 L 81 327 L 80 326 L 76 326 L 75 325 L 71 325 L 70 324 L 67 324 L 66 323 L 62 323 L 61 322 L 58 322 L 57 321 L 55 321 L 54 320 L 51 320 L 50 319 L 48 319 L 47 318 L 45 318 L 44 317 L 43 317 L 42 316 L 40 316 L 39 315 L 38 315 L 37 314 L 36 314 L 34 312 L 33 312 L 31 310 L 31 305 L 30 304 L 30 298 L 29 297 L 29 284 L 30 283 L 31 284 L 32 284 L 36 288 L 37 288 L 39 290 L 40 290 L 41 291 L 43 291 L 44 292 L 50 292 L 51 291 L 53 291 L 54 290 L 55 290 Z M 354 222 L 355 221 L 356 222 L 356 230 L 357 231 L 357 272 L 355 274 L 353 274 L 352 275 L 348 275 L 347 276 L 345 276 L 344 277 L 343 277 L 342 278 L 341 278 L 340 279 L 339 279 L 338 280 L 337 280 L 336 281 L 335 281 L 334 282 L 331 282 L 330 283 L 326 283 L 325 284 L 323 284 L 322 283 L 318 283 L 317 282 L 315 282 L 314 281 L 313 281 L 311 279 L 310 279 L 309 278 L 302 278 L 301 279 L 300 279 L 299 280 L 299 281 L 296 284 L 296 285 L 291 290 L 290 290 L 289 291 L 288 291 L 287 292 L 283 292 L 282 291 L 281 291 L 280 290 L 279 290 L 274 285 L 274 284 L 273 283 L 273 282 L 271 280 L 271 279 L 270 278 L 270 277 L 269 276 L 269 275 L 268 274 L 268 273 L 265 270 L 264 270 L 263 269 L 261 269 L 260 268 L 258 268 L 257 269 L 255 269 L 251 273 L 251 274 L 250 275 L 250 276 L 249 277 L 249 279 L 248 280 L 248 281 L 247 282 L 247 284 L 246 285 L 246 286 L 245 287 L 245 289 L 242 292 L 242 293 L 241 294 L 240 294 L 238 296 L 237 296 L 236 297 L 234 297 L 233 298 L 221 298 L 220 297 L 219 297 L 218 296 L 217 296 L 210 289 L 210 288 L 206 284 L 206 283 L 205 282 L 204 282 L 202 280 L 201 280 L 200 279 L 190 279 L 189 280 L 188 280 L 187 281 L 186 281 L 184 283 L 183 283 L 178 288 L 178 289 L 174 293 L 173 293 L 170 296 L 169 296 L 168 297 L 165 297 L 164 298 L 162 298 L 161 297 L 159 297 L 158 296 L 157 296 L 153 292 L 153 291 L 152 290 L 152 289 L 151 288 L 151 287 L 150 286 L 150 285 L 149 284 L 149 283 L 148 282 L 148 279 L 147 278 L 147 276 L 146 275 L 146 272 L 145 271 L 145 270 L 144 269 L 144 268 L 143 268 L 142 267 L 137 267 L 136 268 L 135 268 L 135 269 L 133 271 L 133 272 L 132 273 L 132 274 L 130 276 L 130 277 L 128 279 L 128 280 L 126 282 L 126 283 L 118 291 L 117 291 L 115 293 L 114 293 L 113 294 L 111 294 L 110 295 L 101 295 L 100 294 L 97 294 L 96 293 L 95 293 L 94 292 L 93 292 L 92 291 L 91 291 L 88 288 L 87 288 L 82 283 L 82 282 L 80 280 L 80 279 L 78 277 L 78 276 L 77 275 L 77 274 L 75 272 L 75 271 L 72 268 L 70 268 L 69 267 L 65 267 L 64 268 L 63 268 L 57 274 L 57 275 L 49 283 L 44 283 L 43 282 L 42 282 L 33 273 L 33 272 L 28 267 L 28 259 L 29 258 L 29 246 L 30 245 L 30 224 L 31 223 L 32 224 L 33 224 L 34 225 L 35 225 L 36 226 L 37 226 L 38 227 L 39 227 L 40 228 L 41 228 L 42 229 L 44 229 L 45 230 L 48 230 L 49 231 L 52 231 L 53 232 L 56 232 L 57 233 L 61 233 L 62 234 L 66 234 L 67 235 L 72 235 L 73 236 L 78 236 L 79 237 L 86 237 L 87 238 L 93 238 L 94 239 L 105 239 L 106 240 L 118 240 L 119 241 L 136 241 L 137 242 L 153 242 L 154 243 L 176 243 L 177 244 L 222 244 L 223 243 L 243 243 L 244 242 L 263 242 L 264 241 L 279 241 L 280 240 L 291 240 L 292 239 L 299 239 L 300 238 L 306 238 L 307 237 L 312 237 L 313 236 L 318 236 L 319 235 L 322 235 L 323 234 L 326 234 L 327 233 L 330 233 L 331 232 L 333 232 L 334 231 L 337 231 L 338 230 L 339 230 L 340 229 L 341 229 L 342 228 L 343 228 L 344 227 L 346 227 L 348 225 L 349 225 L 350 224 L 351 224 L 353 222 Z M 50 198 L 51 197 L 56 197 L 57 198 L 57 203 L 58 204 L 58 206 L 60 208 L 61 208 L 62 209 L 63 209 L 64 210 L 65 210 L 66 211 L 68 211 L 69 212 L 71 212 L 72 213 L 75 213 L 76 214 L 80 214 L 81 215 L 86 215 L 87 216 L 93 216 L 94 217 L 101 217 L 102 218 L 109 218 L 110 219 L 118 219 L 119 220 L 127 220 L 128 221 L 138 221 L 139 222 L 166 222 L 167 223 L 172 223 L 173 222 L 222 222 L 223 221 L 238 221 L 239 220 L 253 220 L 254 219 L 264 219 L 265 218 L 274 218 L 275 217 L 280 217 L 281 216 L 286 216 L 287 215 L 292 215 L 293 214 L 296 214 L 297 213 L 300 213 L 301 212 L 304 212 L 305 211 L 308 211 L 309 210 L 312 210 L 313 209 L 316 209 L 317 208 L 320 208 L 321 207 L 324 207 L 325 206 L 327 206 L 327 205 L 328 204 L 328 200 L 329 199 L 332 199 L 333 200 L 339 200 L 340 201 L 343 201 L 344 202 L 346 202 L 348 204 L 349 204 L 352 207 L 352 209 L 353 210 L 353 211 L 352 212 L 352 213 L 351 214 L 351 215 L 349 217 L 348 217 L 346 219 L 345 219 L 343 221 L 342 221 L 341 222 L 339 222 L 338 223 L 337 223 L 336 224 L 334 224 L 333 225 L 331 225 L 330 226 L 327 226 L 326 227 L 323 227 L 322 228 L 318 228 L 317 229 L 313 229 L 312 230 L 308 230 L 307 231 L 301 231 L 300 232 L 292 232 L 291 233 L 281 233 L 280 234 L 266 234 L 265 235 L 250 235 L 249 236 L 233 236 L 232 237 L 167 237 L 166 236 L 145 236 L 144 235 L 127 235 L 126 234 L 114 234 L 113 233 L 103 233 L 102 232 L 93 232 L 92 231 L 85 231 L 84 230 L 77 230 L 76 229 L 71 229 L 70 228 L 66 228 L 65 227 L 61 227 L 60 226 L 56 226 L 55 225 L 52 225 L 51 224 L 49 224 L 48 223 L 45 223 L 44 222 L 43 222 L 42 221 L 40 221 L 38 219 L 37 219 L 32 214 L 32 213 L 31 212 L 31 208 L 32 207 L 32 206 L 34 204 L 35 204 L 37 202 L 38 202 L 39 201 L 40 201 L 41 200 L 42 200 L 43 199 L 46 199 L 47 198 Z M 113 168 L 117 172 L 117 175 L 118 176 L 118 178 L 119 179 L 119 182 L 120 183 L 120 184 L 121 185 L 121 186 L 126 191 L 127 191 L 128 192 L 129 192 L 130 193 L 137 193 L 138 192 L 140 192 L 141 191 L 142 191 L 153 180 L 154 180 L 155 181 L 155 182 L 156 183 L 156 184 L 158 186 L 158 187 L 166 195 L 167 195 L 168 196 L 170 196 L 171 197 L 180 197 L 181 196 L 185 196 L 186 195 L 187 195 L 188 194 L 189 194 L 190 193 L 191 193 L 194 190 L 195 190 L 197 188 L 197 187 L 200 184 L 200 183 L 201 182 L 201 181 L 202 180 L 202 178 L 203 177 L 203 176 L 204 175 L 204 172 L 205 171 L 206 171 L 207 172 L 207 174 L 208 175 L 208 177 L 209 178 L 209 179 L 210 180 L 210 181 L 213 184 L 213 185 L 214 185 L 216 187 L 217 187 L 219 189 L 223 189 L 224 190 L 226 190 L 227 189 L 231 189 L 232 188 L 233 188 L 234 187 L 235 187 L 244 178 L 244 177 L 246 175 L 247 175 L 249 173 L 252 173 L 255 176 L 255 177 L 257 179 L 257 180 L 258 181 L 258 182 L 261 185 L 261 186 L 263 188 L 264 188 L 266 190 L 269 190 L 270 191 L 274 191 L 275 190 L 277 190 L 278 189 L 279 189 L 284 184 L 284 183 L 285 182 L 285 181 L 286 180 L 286 179 L 287 178 L 287 177 L 288 176 L 288 175 L 289 174 L 289 173 L 292 170 L 296 174 L 297 174 L 299 176 L 300 176 L 302 178 L 304 178 L 305 179 L 313 179 L 314 178 L 315 178 L 316 177 L 317 177 L 318 176 L 319 176 L 320 175 L 321 176 L 321 199 L 319 201 L 314 201 L 313 202 L 309 202 L 308 203 L 305 203 L 304 204 L 301 204 L 300 205 L 296 205 L 295 206 L 292 206 L 291 207 L 286 207 L 285 208 L 280 208 L 279 209 L 272 209 L 271 210 L 264 210 L 263 211 L 251 211 L 250 212 L 236 212 L 235 213 L 218 213 L 217 214 L 192 214 L 191 215 L 166 215 L 165 214 L 139 214 L 138 213 L 128 213 L 127 212 L 120 212 L 119 211 L 112 211 L 111 210 L 103 210 L 102 209 L 94 209 L 93 208 L 86 208 L 85 207 L 80 207 L 79 206 L 76 206 L 75 205 L 72 205 L 71 204 L 69 204 L 68 203 L 67 203 L 65 201 L 65 185 L 66 184 L 67 184 L 69 186 L 70 186 L 72 188 L 73 188 L 75 190 L 76 190 L 77 191 L 79 191 L 80 192 L 84 192 L 85 193 L 88 193 L 89 192 L 92 192 L 93 191 L 94 191 L 95 190 L 96 190 L 103 183 L 103 182 L 105 180 L 105 179 L 106 178 L 106 177 L 108 175 L 108 174 L 110 172 L 110 171 Z M 67 121 L 68 120 L 70 122 L 71 122 L 72 123 L 73 123 L 74 124 L 75 124 L 76 125 L 78 125 L 79 126 L 81 126 L 82 127 L 85 127 L 86 128 L 90 128 L 91 129 L 95 129 L 96 130 L 101 130 L 102 131 L 108 131 L 109 132 L 114 132 L 115 133 L 123 133 L 124 134 L 131 134 L 132 135 L 143 135 L 144 136 L 157 136 L 158 137 L 173 137 L 174 138 L 220 138 L 221 137 L 249 137 L 250 136 L 268 136 L 269 135 L 279 135 L 280 134 L 286 134 L 287 133 L 291 133 L 292 132 L 295 132 L 296 131 L 298 131 L 299 130 L 301 130 L 302 129 L 304 129 L 305 128 L 307 128 L 308 127 L 309 127 L 310 126 L 311 126 L 313 124 L 314 124 L 315 123 L 316 123 L 318 121 L 319 121 L 320 120 L 321 120 L 322 121 L 322 128 L 323 129 L 323 151 L 322 152 L 322 160 L 321 161 L 321 162 L 314 169 L 313 169 L 312 170 L 311 170 L 310 171 L 307 171 L 306 170 L 305 170 L 303 168 L 302 168 L 296 162 L 294 162 L 293 161 L 290 161 L 289 162 L 288 162 L 286 164 L 285 164 L 285 165 L 283 167 L 283 168 L 282 169 L 282 170 L 281 171 L 281 172 L 280 173 L 280 174 L 279 175 L 279 176 L 278 177 L 278 178 L 275 181 L 274 181 L 273 182 L 271 182 L 270 181 L 269 181 L 266 178 L 266 177 L 265 176 L 265 175 L 264 174 L 264 173 L 262 171 L 262 170 L 257 165 L 256 165 L 255 164 L 248 164 L 247 165 L 245 165 L 242 168 L 241 168 L 238 171 L 238 172 L 232 178 L 231 178 L 229 180 L 227 180 L 226 181 L 223 181 L 222 180 L 221 180 L 220 179 L 219 179 L 218 178 L 218 177 L 216 175 L 216 174 L 215 173 L 215 171 L 214 170 L 214 168 L 213 167 L 213 165 L 212 164 L 212 162 L 211 161 L 211 160 L 208 157 L 206 157 L 205 156 L 204 157 L 202 157 L 199 160 L 199 161 L 198 162 L 198 164 L 197 165 L 197 169 L 196 170 L 196 172 L 195 173 L 195 175 L 194 176 L 194 177 L 193 178 L 193 179 L 186 186 L 185 186 L 184 187 L 183 187 L 182 188 L 179 188 L 178 189 L 175 189 L 174 188 L 172 188 L 171 187 L 170 187 L 169 186 L 168 186 L 165 183 L 165 182 L 164 181 L 164 180 L 163 179 L 163 178 L 162 177 L 162 176 L 161 175 L 161 173 L 160 172 L 160 171 L 157 168 L 152 168 L 147 173 L 147 174 L 144 177 L 144 178 L 140 182 L 139 182 L 137 184 L 135 184 L 134 185 L 133 185 L 132 184 L 131 184 L 128 181 L 128 180 L 127 179 L 127 178 L 126 177 L 126 175 L 125 174 L 125 171 L 124 170 L 124 168 L 123 167 L 123 166 L 122 165 L 122 164 L 119 161 L 118 161 L 117 160 L 111 160 L 110 161 L 109 161 L 103 167 L 103 168 L 101 170 L 101 171 L 100 172 L 100 173 L 98 175 L 98 176 L 91 183 L 90 183 L 89 184 L 87 184 L 86 185 L 84 185 L 83 184 L 81 184 L 80 183 L 79 183 L 77 181 L 76 181 L 74 179 L 73 179 L 71 177 L 70 177 L 69 176 L 68 176 L 67 175 L 66 175 L 65 174 L 65 163 L 66 162 L 66 149 L 67 148 Z M 107 100 L 108 99 L 117 99 L 119 101 L 119 102 L 124 107 L 125 107 L 127 109 L 128 109 L 129 110 L 130 110 L 131 111 L 133 111 L 134 112 L 136 112 L 137 113 L 139 113 L 140 114 L 143 114 L 144 115 L 147 115 L 148 116 L 152 116 L 153 117 L 157 117 L 158 118 L 162 118 L 163 119 L 169 119 L 170 120 L 179 120 L 180 121 L 207 121 L 208 120 L 221 120 L 222 119 L 229 119 L 230 118 L 234 118 L 235 117 L 239 117 L 240 116 L 243 116 L 244 115 L 246 115 L 247 114 L 250 114 L 251 113 L 252 113 L 253 112 L 254 112 L 255 111 L 256 111 L 257 110 L 258 110 L 260 108 L 261 108 L 269 100 L 275 100 L 276 101 L 281 101 L 282 102 L 286 102 L 287 103 L 291 103 L 292 104 L 297 104 L 298 105 L 302 105 L 303 106 L 306 106 L 307 107 L 310 107 L 311 108 L 313 108 L 314 109 L 315 109 L 316 110 L 317 110 L 318 111 L 311 118 L 310 118 L 309 119 L 308 119 L 307 120 L 306 120 L 305 121 L 304 121 L 303 122 L 302 122 L 301 123 L 299 123 L 298 124 L 296 124 L 295 125 L 292 125 L 291 126 L 288 126 L 287 127 L 282 127 L 281 128 L 274 128 L 273 129 L 262 129 L 261 130 L 230 130 L 229 131 L 177 131 L 176 130 L 154 130 L 153 129 L 141 129 L 140 128 L 130 128 L 129 127 L 122 127 L 121 126 L 115 126 L 114 125 L 108 125 L 107 124 L 101 124 L 100 123 L 95 123 L 94 122 L 90 122 L 89 121 L 86 121 L 85 120 L 82 120 L 81 119 L 79 119 L 78 118 L 77 118 L 75 116 L 74 116 L 72 114 L 72 112 L 75 109 L 76 109 L 77 108 L 78 108 L 80 106 L 82 106 L 83 105 L 84 105 L 85 104 L 87 104 L 88 103 L 91 103 L 92 102 L 95 102 L 96 101 L 100 101 L 101 100 Z M 260 80 L 261 81 L 261 84 L 262 85 L 262 96 L 260 98 L 260 99 L 258 101 L 257 101 L 255 103 L 254 103 L 253 104 L 252 104 L 251 105 L 250 105 L 249 106 L 248 106 L 247 107 L 246 107 L 245 108 L 243 108 L 242 109 L 239 109 L 238 110 L 235 110 L 234 111 L 228 111 L 227 112 L 220 112 L 219 113 L 193 113 L 192 114 L 187 114 L 186 113 L 174 113 L 173 112 L 166 112 L 165 111 L 160 111 L 159 110 L 156 110 L 155 109 L 151 109 L 150 108 L 147 108 L 146 107 L 143 107 L 142 106 L 139 106 L 138 105 L 136 105 L 135 104 L 134 104 L 133 103 L 132 103 L 131 102 L 130 102 L 125 97 L 125 91 L 126 90 L 129 90 L 130 89 L 131 89 L 132 88 L 133 88 L 137 84 L 138 84 L 141 81 L 144 81 L 149 86 L 149 87 L 151 89 L 152 89 L 154 91 L 155 91 L 156 92 L 157 92 L 158 93 L 160 93 L 161 94 L 167 94 L 168 93 L 171 93 L 172 92 L 173 92 L 176 89 L 177 89 L 184 82 L 186 82 L 190 86 L 190 87 L 191 88 L 191 89 L 195 93 L 196 93 L 197 94 L 199 94 L 200 95 L 207 95 L 208 94 L 210 94 L 211 93 L 212 93 L 215 90 L 216 90 L 216 89 L 223 82 L 224 82 L 225 81 L 228 81 L 231 84 L 231 85 L 233 87 L 233 88 L 236 91 L 237 91 L 238 92 L 240 92 L 241 93 L 246 93 L 247 92 L 249 92 L 251 90 L 252 90 L 255 87 L 255 86 L 258 83 L 258 82 Z M 129 50 L 130 51 L 132 51 L 133 52 L 134 52 L 135 53 L 136 53 L 137 54 L 139 54 L 140 55 L 142 55 L 143 56 L 145 56 L 146 57 L 148 57 L 149 58 L 152 58 L 153 59 L 157 59 L 158 60 L 162 60 L 163 61 L 169 61 L 170 62 L 180 62 L 181 63 L 209 63 L 210 62 L 217 62 L 218 61 L 223 61 L 224 60 L 230 60 L 231 59 L 234 59 L 235 58 L 238 58 L 239 57 L 242 57 L 243 56 L 245 56 L 246 55 L 247 55 L 248 54 L 249 54 L 250 53 L 251 53 L 252 52 L 253 52 L 254 51 L 255 52 L 255 53 L 256 54 L 256 61 L 257 62 L 257 66 L 258 67 L 258 70 L 254 74 L 254 75 L 251 78 L 251 79 L 245 85 L 241 85 L 238 82 L 238 81 L 236 79 L 236 78 L 232 74 L 230 74 L 229 73 L 224 73 L 223 74 L 222 74 L 221 75 L 220 75 L 219 76 L 218 76 L 213 81 L 213 82 L 209 86 L 208 86 L 207 87 L 206 87 L 205 88 L 203 88 L 202 87 L 200 87 L 196 83 L 196 82 L 194 80 L 194 79 L 193 78 L 193 77 L 192 77 L 190 75 L 189 75 L 188 74 L 184 74 L 183 75 L 181 75 L 178 78 L 177 78 L 170 85 L 168 85 L 167 86 L 161 86 L 160 85 L 159 85 L 157 83 L 156 83 L 154 81 L 154 80 L 148 74 L 146 74 L 145 73 L 141 73 L 140 74 L 138 74 L 137 75 L 136 75 L 129 82 L 126 82 L 124 80 L 124 66 L 125 65 L 125 62 L 126 61 L 126 57 L 127 56 L 127 52 Z M 194 28 L 195 27 L 199 27 L 200 28 L 211 28 L 212 29 L 217 29 L 218 30 L 223 30 L 224 31 L 229 31 L 230 32 L 233 32 L 234 33 L 237 33 L 238 34 L 241 34 L 242 35 L 243 35 L 244 36 L 246 36 L 247 37 L 248 37 L 252 41 L 252 43 L 250 45 L 249 45 L 247 47 L 246 47 L 245 48 L 244 48 L 243 49 L 241 49 L 240 50 L 238 50 L 237 51 L 234 51 L 233 52 L 231 52 L 230 53 L 226 53 L 225 54 L 221 54 L 220 55 L 213 55 L 212 56 L 182 56 L 181 55 L 171 55 L 170 54 L 164 54 L 163 53 L 159 53 L 158 52 L 154 52 L 153 51 L 150 51 L 149 50 L 147 50 L 146 49 L 144 49 L 143 48 L 141 48 L 140 47 L 139 47 L 138 46 L 137 46 L 136 45 L 135 45 L 131 41 L 133 39 L 134 39 L 135 38 L 136 38 L 137 37 L 138 37 L 139 36 L 140 36 L 141 35 L 143 35 L 144 34 L 146 34 L 147 33 L 150 33 L 151 32 L 157 32 L 158 31 L 163 31 L 164 30 L 173 30 L 174 29 L 184 29 L 185 28 Z" fill="black" fill-rule="evenodd" /></svg>