<?xml version="1.0" encoding="utf-8" ?>
<svg baseProfile="full" height="333px" version="1.1" viewBox="0 0 543 333" width="543px" xmlns="http://www.w3.org/2000/svg" xmlns:ev="http://www.w3.org/2001/xml-events" xmlns:xlink="http://www.w3.org/1999/xlink"><defs /><path d="M 153 20 L 152 21 L 145 21 L 144 22 L 140 22 L 139 23 L 134 23 L 133 24 L 130 24 L 129 25 L 127 25 L 126 26 L 123 26 L 122 27 L 121 27 L 120 28 L 118 28 L 117 29 L 115 29 L 114 30 L 113 30 L 112 31 L 110 31 L 109 32 L 108 32 L 107 33 L 106 33 L 105 34 L 104 34 L 103 35 L 102 35 L 101 36 L 100 36 L 99 37 L 98 37 L 97 38 L 96 38 L 95 39 L 94 39 L 92 41 L 91 41 L 90 42 L 89 42 L 88 43 L 87 43 L 85 45 L 84 45 L 81 48 L 80 48 L 78 50 L 77 50 L 72 55 L 71 55 L 63 63 L 62 63 L 59 66 L 59 67 L 54 72 L 54 73 L 50 77 L 50 78 L 47 81 L 47 82 L 45 84 L 45 85 L 44 86 L 44 87 L 42 89 L 42 90 L 40 92 L 40 93 L 39 94 L 39 95 L 37 97 L 37 98 L 36 99 L 36 100 L 35 101 L 35 102 L 34 103 L 34 104 L 33 105 L 33 106 L 32 107 L 32 109 L 31 110 L 31 111 L 30 112 L 30 114 L 29 115 L 29 117 L 28 118 L 28 120 L 27 121 L 27 123 L 26 124 L 26 126 L 25 127 L 25 130 L 24 131 L 24 134 L 23 135 L 23 138 L 22 139 L 22 145 L 21 146 L 21 155 L 20 156 L 20 173 L 21 174 L 21 184 L 22 185 L 22 190 L 23 191 L 23 195 L 24 196 L 24 198 L 25 199 L 25 202 L 26 203 L 26 206 L 27 207 L 27 209 L 28 210 L 28 212 L 29 213 L 29 215 L 30 216 L 30 217 L 31 218 L 31 220 L 32 221 L 32 222 L 33 223 L 33 224 L 34 225 L 34 226 L 35 227 L 35 228 L 36 229 L 36 230 L 37 231 L 37 232 L 38 233 L 38 234 L 40 236 L 40 237 L 41 238 L 41 239 L 43 241 L 43 242 L 44 243 L 44 244 L 46 246 L 46 247 L 49 250 L 49 251 L 52 254 L 52 255 L 70 273 L 71 273 L 75 277 L 76 277 L 79 280 L 80 280 L 82 282 L 83 282 L 85 284 L 86 284 L 87 285 L 88 285 L 90 287 L 91 287 L 92 288 L 93 288 L 95 290 L 96 290 L 97 291 L 98 291 L 99 292 L 100 292 L 101 293 L 102 293 L 103 294 L 104 294 L 105 295 L 107 295 L 108 296 L 109 296 L 110 297 L 111 297 L 112 298 L 113 298 L 114 299 L 116 299 L 117 300 L 119 300 L 120 301 L 122 301 L 123 302 L 125 302 L 126 303 L 129 303 L 130 304 L 133 304 L 134 305 L 138 305 L 139 306 L 142 306 L 143 307 L 150 307 L 151 308 L 160 308 L 161 309 L 175 309 L 176 308 L 184 308 L 185 307 L 190 307 L 191 306 L 195 306 L 196 305 L 199 305 L 200 304 L 203 304 L 204 303 L 207 303 L 208 302 L 210 302 L 211 301 L 213 301 L 214 300 L 216 300 L 217 299 L 218 299 L 219 298 L 221 298 L 222 297 L 223 297 L 224 296 L 226 296 L 227 295 L 228 295 L 229 294 L 230 294 L 231 293 L 232 293 L 233 292 L 234 292 L 235 291 L 236 291 L 238 289 L 239 289 L 240 288 L 241 288 L 242 287 L 243 287 L 245 285 L 246 285 L 247 284 L 248 284 L 251 281 L 252 281 L 254 279 L 255 279 L 257 277 L 258 277 L 263 272 L 264 272 L 269 267 L 269 266 L 270 265 L 271 265 L 272 266 L 272 267 L 278 273 L 279 273 L 285 279 L 286 279 L 289 282 L 290 282 L 293 285 L 294 285 L 296 287 L 297 287 L 299 289 L 300 289 L 301 290 L 302 290 L 304 292 L 305 292 L 307 294 L 308 294 L 309 295 L 310 295 L 311 296 L 312 296 L 313 297 L 314 297 L 315 298 L 317 298 L 318 299 L 319 299 L 320 300 L 321 300 L 322 301 L 323 301 L 324 302 L 326 302 L 327 303 L 328 303 L 329 304 L 331 304 L 332 305 L 334 305 L 335 306 L 338 306 L 339 307 L 341 307 L 342 308 L 345 308 L 346 309 L 349 309 L 350 310 L 354 310 L 355 311 L 361 311 L 362 312 L 396 312 L 397 311 L 403 311 L 404 310 L 408 310 L 409 309 L 413 309 L 414 308 L 416 308 L 417 307 L 420 307 L 421 306 L 423 306 L 424 305 L 426 305 L 427 304 L 428 304 L 429 303 L 431 303 L 432 302 L 434 302 L 435 301 L 436 301 L 437 300 L 438 300 L 439 299 L 441 299 L 442 298 L 443 298 L 444 297 L 445 297 L 446 296 L 447 296 L 448 295 L 449 295 L 451 293 L 452 293 L 453 292 L 454 292 L 456 290 L 457 290 L 459 288 L 460 288 L 462 286 L 463 286 L 465 284 L 466 284 L 470 280 L 471 280 L 479 272 L 480 272 L 483 269 L 483 268 L 491 260 L 491 259 L 493 257 L 493 256 L 496 253 L 496 252 L 498 250 L 498 249 L 501 246 L 501 245 L 502 244 L 502 243 L 503 242 L 503 241 L 505 239 L 505 238 L 506 237 L 506 236 L 507 235 L 507 234 L 508 233 L 508 232 L 509 231 L 509 230 L 510 229 L 510 227 L 511 226 L 511 225 L 512 224 L 512 222 L 513 221 L 513 220 L 514 219 L 514 217 L 515 216 L 515 213 L 516 212 L 516 210 L 517 209 L 517 206 L 518 205 L 518 202 L 519 201 L 519 196 L 520 195 L 520 191 L 521 190 L 521 183 L 522 182 L 522 163 L 521 162 L 521 155 L 520 154 L 520 148 L 519 147 L 519 143 L 518 142 L 518 138 L 517 137 L 517 134 L 516 133 L 516 132 L 515 131 L 515 129 L 514 128 L 514 126 L 513 125 L 513 123 L 512 122 L 512 121 L 511 120 L 511 118 L 510 117 L 510 116 L 509 115 L 509 114 L 508 113 L 508 111 L 507 110 L 507 109 L 506 108 L 506 107 L 504 105 L 504 104 L 503 103 L 503 102 L 501 100 L 501 99 L 500 98 L 500 97 L 498 95 L 498 94 L 496 92 L 496 91 L 493 88 L 493 87 L 490 84 L 490 83 L 486 79 L 486 78 L 473 65 L 472 65 L 467 60 L 466 60 L 463 57 L 462 57 L 460 55 L 459 55 L 457 53 L 456 53 L 454 51 L 453 51 L 451 49 L 450 49 L 449 48 L 448 48 L 447 47 L 446 47 L 445 46 L 444 46 L 442 44 L 441 44 L 440 43 L 439 43 L 438 42 L 437 42 L 436 41 L 434 41 L 433 40 L 432 40 L 431 39 L 429 39 L 428 38 L 426 38 L 425 37 L 424 37 L 423 36 L 421 36 L 420 35 L 418 35 L 417 34 L 414 34 L 413 33 L 410 33 L 409 32 L 407 32 L 406 31 L 401 31 L 400 30 L 395 30 L 394 29 L 386 29 L 385 28 L 368 28 L 367 29 L 358 29 L 357 30 L 352 30 L 351 31 L 346 31 L 345 32 L 342 32 L 341 33 L 338 33 L 337 34 L 335 34 L 334 35 L 332 35 L 331 36 L 329 36 L 328 37 L 326 37 L 325 38 L 323 38 L 322 39 L 321 39 L 320 40 L 319 40 L 318 41 L 316 41 L 315 42 L 314 42 L 313 43 L 312 43 L 311 44 L 310 44 L 309 45 L 308 45 L 307 46 L 306 46 L 304 48 L 303 48 L 302 49 L 301 49 L 299 51 L 298 51 L 296 53 L 295 53 L 293 55 L 292 55 L 289 58 L 288 58 L 284 62 L 283 62 L 279 66 L 278 66 L 278 67 L 276 69 L 275 69 L 274 68 L 274 67 L 263 56 L 262 56 L 257 51 L 256 51 L 253 48 L 252 48 L 250 46 L 249 46 L 247 44 L 246 44 L 244 42 L 243 42 L 242 41 L 241 41 L 239 39 L 238 39 L 237 38 L 236 38 L 234 36 L 233 36 L 232 35 L 231 35 L 230 34 L 229 34 L 228 33 L 226 33 L 225 32 L 224 32 L 223 31 L 221 31 L 220 30 L 219 30 L 218 29 L 216 29 L 215 28 L 213 28 L 212 27 L 210 27 L 209 26 L 207 26 L 206 25 L 203 25 L 202 24 L 199 24 L 198 23 L 194 23 L 193 22 L 188 22 L 187 21 L 180 21 L 179 20 Z M 273 122 L 274 121 L 275 121 L 276 122 L 276 124 L 277 125 L 277 127 L 278 128 L 278 130 L 279 131 L 279 133 L 280 134 L 280 136 L 281 137 L 281 140 L 282 141 L 282 145 L 283 146 L 283 151 L 284 152 L 284 177 L 283 178 L 283 183 L 282 184 L 282 189 L 281 190 L 281 193 L 280 194 L 280 196 L 279 197 L 279 199 L 278 200 L 278 202 L 277 203 L 277 205 L 276 206 L 276 207 L 275 208 L 275 210 L 274 211 L 274 212 L 272 214 L 271 213 L 271 211 L 270 210 L 270 208 L 269 207 L 269 205 L 268 204 L 268 202 L 267 201 L 267 198 L 266 197 L 266 194 L 265 193 L 265 190 L 264 189 L 264 185 L 263 184 L 263 174 L 262 173 L 262 164 L 263 163 L 263 154 L 264 153 L 264 148 L 265 147 L 265 144 L 266 143 L 266 140 L 267 139 L 267 136 L 268 135 L 268 133 L 269 132 L 269 130 L 270 129 L 270 128 L 271 127 L 271 125 L 273 123 Z M 361 58 L 362 57 L 389 57 L 390 58 L 395 58 L 396 59 L 400 59 L 401 60 L 404 60 L 405 61 L 408 61 L 409 62 L 412 62 L 413 63 L 414 63 L 415 64 L 417 64 L 418 65 L 419 65 L 420 66 L 422 66 L 423 67 L 424 67 L 425 68 L 426 68 L 427 69 L 428 69 L 429 70 L 430 70 L 431 71 L 432 71 L 433 72 L 434 72 L 436 74 L 437 74 L 439 76 L 440 76 L 441 77 L 442 77 L 445 80 L 446 80 L 451 85 L 452 85 L 464 97 L 464 98 L 467 101 L 467 102 L 470 105 L 470 106 L 473 109 L 473 110 L 475 112 L 475 113 L 476 114 L 476 115 L 477 116 L 477 117 L 478 118 L 478 119 L 479 120 L 479 121 L 480 122 L 480 123 L 481 124 L 481 125 L 482 126 L 482 127 L 483 128 L 483 130 L 484 131 L 484 133 L 485 134 L 485 136 L 486 137 L 486 140 L 487 141 L 487 143 L 488 144 L 488 146 L 489 147 L 489 151 L 490 152 L 490 160 L 491 161 L 491 178 L 490 179 L 490 187 L 489 188 L 489 192 L 488 193 L 488 196 L 487 197 L 487 200 L 486 201 L 486 203 L 485 204 L 485 207 L 484 208 L 484 209 L 483 210 L 483 212 L 482 213 L 482 214 L 481 215 L 481 216 L 480 217 L 480 218 L 479 219 L 479 220 L 478 221 L 478 222 L 477 223 L 477 224 L 476 225 L 476 226 L 474 228 L 474 229 L 472 231 L 472 232 L 470 234 L 470 235 L 468 237 L 468 238 L 463 243 L 463 244 L 451 256 L 450 256 L 447 259 L 446 259 L 442 263 L 441 263 L 440 264 L 439 264 L 437 266 L 436 266 L 434 268 L 433 268 L 432 269 L 431 269 L 430 270 L 429 270 L 428 271 L 427 271 L 426 272 L 425 272 L 424 273 L 423 273 L 422 274 L 420 274 L 419 275 L 418 275 L 417 276 L 415 276 L 414 277 L 412 277 L 411 278 L 409 278 L 408 279 L 405 279 L 404 280 L 400 280 L 399 281 L 395 281 L 394 282 L 388 282 L 387 283 L 369 283 L 368 282 L 361 282 L 360 281 L 354 281 L 353 280 L 350 280 L 349 279 L 347 279 L 346 278 L 343 278 L 342 277 L 340 277 L 339 276 L 338 276 L 337 275 L 336 275 L 335 274 L 333 274 L 332 273 L 331 273 L 330 272 L 329 272 L 328 271 L 327 271 L 326 270 L 325 270 L 324 269 L 323 269 L 322 268 L 321 268 L 319 266 L 318 266 L 317 265 L 316 265 L 314 263 L 313 263 L 310 260 L 309 260 L 305 256 L 304 256 L 292 244 L 292 243 L 291 242 L 291 241 L 292 240 L 292 239 L 293 238 L 293 237 L 295 235 L 295 234 L 297 232 L 297 230 L 299 228 L 299 226 L 300 225 L 300 224 L 301 223 L 301 222 L 302 221 L 302 220 L 303 219 L 303 217 L 304 216 L 304 215 L 305 214 L 305 212 L 306 211 L 306 210 L 307 209 L 307 207 L 308 206 L 308 204 L 309 203 L 309 201 L 310 200 L 310 197 L 311 196 L 311 193 L 312 192 L 312 188 L 313 187 L 313 181 L 314 180 L 314 152 L 313 151 L 313 144 L 312 143 L 312 139 L 311 138 L 311 134 L 310 133 L 310 131 L 309 130 L 309 127 L 308 126 L 308 124 L 307 123 L 307 121 L 306 120 L 306 118 L 305 117 L 305 116 L 304 115 L 304 113 L 303 112 L 303 111 L 302 110 L 302 109 L 301 108 L 301 106 L 300 105 L 300 104 L 299 103 L 299 102 L 298 101 L 298 100 L 297 99 L 297 98 L 295 96 L 295 95 L 294 94 L 294 92 L 299 87 L 300 87 L 307 80 L 308 80 L 310 78 L 311 78 L 313 76 L 314 76 L 317 73 L 318 73 L 319 72 L 320 72 L 321 71 L 322 71 L 323 70 L 324 70 L 326 68 L 327 68 L 328 67 L 329 67 L 330 66 L 332 66 L 333 65 L 334 65 L 335 64 L 337 64 L 338 63 L 339 63 L 340 62 L 343 62 L 344 61 L 346 61 L 347 60 L 350 60 L 351 59 L 355 59 L 356 58 Z M 150 50 L 151 49 L 178 49 L 179 50 L 186 50 L 187 51 L 190 51 L 191 52 L 194 52 L 195 53 L 198 53 L 199 54 L 201 54 L 202 55 L 204 55 L 205 56 L 207 56 L 208 57 L 209 57 L 210 58 L 212 58 L 213 59 L 214 59 L 215 60 L 216 60 L 217 61 L 218 61 L 219 62 L 220 62 L 221 63 L 222 63 L 223 64 L 224 64 L 225 65 L 226 65 L 227 66 L 228 66 L 230 68 L 231 68 L 233 70 L 234 70 L 237 73 L 238 73 L 247 82 L 248 82 L 251 85 L 251 86 L 257 92 L 257 93 L 255 95 L 255 96 L 253 98 L 253 99 L 252 100 L 252 101 L 251 102 L 251 103 L 250 104 L 250 105 L 248 107 L 248 108 L 247 109 L 247 110 L 246 111 L 246 112 L 245 113 L 245 115 L 244 116 L 244 117 L 243 118 L 243 120 L 242 121 L 242 122 L 241 123 L 241 125 L 240 126 L 240 128 L 239 129 L 239 132 L 238 133 L 238 135 L 237 136 L 237 139 L 236 140 L 236 144 L 235 145 L 235 150 L 234 151 L 234 159 L 233 160 L 233 180 L 234 181 L 234 189 L 235 190 L 235 195 L 236 196 L 236 200 L 237 201 L 237 204 L 238 205 L 238 207 L 239 208 L 239 211 L 240 212 L 240 214 L 241 215 L 241 217 L 242 218 L 242 219 L 243 220 L 243 222 L 244 223 L 244 224 L 245 225 L 245 227 L 246 228 L 246 229 L 247 230 L 247 231 L 248 232 L 248 233 L 249 234 L 249 235 L 250 236 L 250 237 L 251 238 L 251 239 L 252 240 L 252 242 L 245 249 L 244 249 L 238 255 L 237 255 L 234 258 L 233 258 L 231 260 L 230 260 L 228 262 L 227 262 L 226 263 L 225 263 L 224 264 L 223 264 L 221 266 L 220 266 L 219 267 L 218 267 L 217 268 L 216 268 L 215 269 L 214 269 L 213 270 L 211 270 L 210 271 L 209 271 L 208 272 L 206 272 L 205 273 L 203 273 L 202 274 L 200 274 L 199 275 L 197 275 L 196 276 L 193 276 L 192 277 L 189 277 L 188 278 L 183 278 L 182 279 L 174 279 L 173 280 L 160 280 L 159 279 L 150 279 L 149 278 L 144 278 L 143 277 L 139 277 L 138 276 L 135 276 L 134 275 L 132 275 L 131 274 L 129 274 L 128 273 L 126 273 L 125 272 L 123 272 L 122 271 L 121 271 L 120 270 L 119 270 L 118 269 L 116 269 L 115 268 L 114 268 L 113 267 L 112 267 L 110 265 L 109 265 L 108 264 L 107 264 L 106 263 L 105 263 L 103 261 L 102 261 L 98 257 L 97 257 L 95 255 L 94 255 L 76 237 L 76 236 L 72 232 L 72 231 L 69 228 L 69 227 L 68 226 L 68 225 L 66 223 L 66 222 L 65 221 L 65 220 L 64 219 L 64 218 L 63 217 L 63 216 L 62 215 L 62 214 L 61 213 L 61 212 L 60 211 L 60 210 L 59 209 L 59 207 L 58 206 L 58 205 L 57 204 L 57 202 L 56 201 L 56 199 L 55 198 L 55 196 L 54 195 L 54 192 L 53 191 L 53 188 L 52 187 L 52 182 L 51 181 L 51 175 L 50 174 L 50 154 L 51 153 L 51 147 L 52 146 L 52 141 L 53 140 L 53 137 L 54 136 L 54 133 L 55 132 L 55 130 L 56 129 L 56 127 L 57 126 L 57 124 L 58 123 L 58 121 L 59 120 L 59 119 L 60 118 L 60 117 L 61 116 L 61 114 L 62 113 L 62 112 L 63 111 L 63 110 L 65 108 L 65 107 L 66 106 L 66 105 L 68 103 L 68 102 L 70 100 L 70 99 L 73 96 L 73 95 L 76 92 L 76 91 L 84 83 L 84 82 L 86 80 L 87 80 L 93 74 L 94 74 L 97 71 L 98 71 L 100 69 L 101 69 L 104 66 L 105 66 L 107 64 L 108 64 L 109 63 L 110 63 L 111 62 L 112 62 L 113 61 L 114 61 L 115 60 L 116 60 L 117 59 L 119 59 L 120 58 L 121 58 L 122 57 L 123 57 L 124 56 L 126 56 L 127 55 L 129 55 L 130 54 L 133 54 L 134 53 L 136 53 L 137 52 L 140 52 L 141 51 L 145 51 L 146 50 Z M 363 37 L 364 36 L 389 36 L 390 37 L 396 37 L 397 38 L 402 38 L 403 39 L 407 39 L 408 40 L 411 40 L 412 41 L 414 41 L 415 42 L 417 42 L 418 43 L 421 43 L 422 44 L 423 44 L 424 45 L 426 45 L 427 46 L 429 46 L 430 47 L 431 47 L 432 48 L 433 48 L 434 49 L 435 49 L 436 50 L 437 50 L 438 51 L 439 51 L 440 52 L 441 52 L 442 53 L 443 53 L 445 55 L 446 55 L 447 56 L 448 56 L 449 57 L 450 57 L 452 59 L 453 59 L 455 61 L 456 61 L 458 63 L 459 63 L 463 67 L 464 67 L 483 86 L 483 87 L 487 91 L 487 92 L 490 95 L 490 96 L 492 98 L 492 99 L 493 100 L 493 101 L 495 103 L 495 104 L 497 106 L 497 107 L 498 108 L 498 109 L 499 110 L 499 111 L 500 112 L 500 113 L 501 114 L 501 115 L 502 116 L 502 117 L 503 118 L 503 119 L 504 120 L 504 122 L 505 123 L 505 124 L 506 125 L 506 127 L 507 128 L 507 130 L 508 131 L 508 133 L 509 134 L 509 136 L 510 137 L 510 140 L 511 141 L 511 145 L 512 146 L 512 151 L 513 152 L 513 158 L 514 159 L 514 184 L 513 185 L 513 192 L 512 193 L 512 198 L 511 199 L 511 202 L 510 203 L 510 206 L 509 207 L 509 210 L 508 211 L 508 213 L 507 214 L 507 216 L 506 217 L 506 219 L 505 220 L 505 221 L 504 222 L 504 223 L 503 224 L 503 226 L 502 227 L 502 228 L 501 229 L 501 230 L 500 231 L 500 232 L 499 233 L 499 234 L 498 235 L 498 236 L 496 238 L 496 239 L 495 240 L 495 241 L 493 243 L 493 244 L 492 245 L 492 246 L 489 249 L 489 250 L 485 254 L 485 255 L 480 260 L 480 261 L 471 270 L 470 270 L 465 275 L 464 275 L 460 279 L 459 279 L 457 281 L 456 281 L 455 282 L 454 282 L 452 284 L 451 284 L 449 286 L 448 286 L 447 287 L 446 287 L 445 288 L 444 288 L 443 289 L 442 289 L 441 290 L 440 290 L 439 291 L 438 291 L 437 292 L 436 292 L 435 293 L 434 293 L 433 294 L 431 294 L 430 295 L 429 295 L 428 296 L 426 296 L 425 297 L 423 297 L 422 298 L 420 298 L 419 299 L 417 299 L 416 300 L 414 300 L 413 301 L 410 301 L 409 302 L 404 302 L 403 303 L 398 303 L 397 304 L 386 304 L 385 305 L 372 305 L 371 304 L 361 304 L 360 303 L 355 303 L 354 302 L 350 302 L 349 301 L 346 301 L 345 300 L 343 300 L 342 299 L 339 299 L 338 298 L 336 298 L 335 297 L 334 297 L 333 296 L 331 296 L 330 295 L 328 295 L 327 294 L 326 294 L 325 293 L 324 293 L 323 292 L 321 292 L 319 290 L 317 290 L 315 288 L 314 288 L 313 287 L 312 287 L 311 286 L 310 286 L 309 285 L 308 285 L 306 283 L 305 283 L 304 282 L 303 282 L 301 280 L 300 280 L 297 277 L 296 277 L 293 274 L 292 274 L 288 270 L 287 270 L 271 254 L 271 253 L 267 249 L 267 248 L 265 246 L 265 245 L 263 243 L 263 242 L 261 240 L 261 239 L 259 237 L 259 236 L 258 235 L 258 234 L 257 233 L 257 232 L 256 231 L 256 230 L 255 229 L 255 228 L 254 227 L 254 226 L 253 225 L 253 224 L 252 223 L 252 222 L 251 221 L 251 219 L 250 218 L 250 217 L 249 216 L 249 214 L 248 213 L 248 211 L 247 210 L 247 209 L 246 208 L 246 206 L 245 205 L 245 202 L 244 201 L 244 197 L 243 196 L 243 192 L 242 191 L 242 185 L 241 184 L 241 159 L 242 158 L 242 151 L 243 150 L 243 146 L 244 145 L 244 140 L 245 139 L 245 136 L 246 135 L 246 132 L 247 131 L 247 130 L 248 129 L 248 127 L 249 126 L 249 124 L 250 123 L 250 122 L 251 121 L 251 119 L 252 118 L 252 117 L 253 116 L 253 115 L 254 114 L 254 113 L 255 112 L 255 111 L 256 110 L 256 109 L 257 108 L 257 107 L 258 106 L 258 105 L 260 103 L 260 102 L 261 101 L 261 100 L 262 99 L 263 99 L 264 100 L 264 101 L 266 103 L 266 104 L 268 106 L 268 107 L 269 108 L 269 109 L 270 110 L 269 111 L 269 112 L 268 113 L 268 114 L 267 115 L 267 116 L 266 117 L 266 118 L 265 119 L 265 120 L 264 121 L 264 122 L 263 123 L 263 124 L 262 125 L 262 127 L 261 128 L 261 130 L 260 131 L 260 133 L 259 134 L 259 136 L 258 137 L 258 140 L 257 141 L 257 145 L 256 146 L 256 152 L 255 153 L 255 184 L 256 185 L 256 191 L 257 192 L 257 195 L 258 196 L 258 200 L 259 201 L 259 204 L 260 205 L 260 207 L 261 208 L 261 210 L 262 211 L 262 212 L 263 213 L 263 215 L 264 216 L 264 217 L 265 218 L 265 219 L 266 220 L 266 221 L 267 222 L 267 223 L 268 224 L 268 225 L 269 226 L 269 227 L 270 228 L 270 229 L 272 231 L 272 232 L 274 234 L 274 235 L 275 236 L 275 237 L 278 240 L 278 241 L 282 245 L 282 246 L 297 261 L 298 261 L 302 265 L 303 265 L 307 269 L 308 269 L 310 271 L 311 271 L 312 272 L 313 272 L 315 274 L 316 274 L 317 275 L 318 275 L 319 276 L 320 276 L 322 278 L 323 278 L 324 279 L 325 279 L 326 280 L 328 280 L 329 281 L 330 281 L 331 282 L 332 282 L 333 283 L 335 283 L 336 284 L 337 284 L 338 285 L 341 285 L 342 286 L 344 286 L 345 287 L 348 287 L 349 288 L 353 288 L 354 289 L 358 289 L 359 290 L 367 290 L 368 291 L 388 291 L 389 290 L 395 290 L 396 289 L 401 289 L 402 288 L 406 288 L 407 287 L 410 287 L 411 286 L 413 286 L 414 285 L 417 285 L 418 284 L 419 284 L 420 283 L 422 283 L 423 282 L 424 282 L 425 281 L 427 281 L 428 280 L 429 280 L 430 279 L 431 279 L 432 278 L 433 278 L 434 277 L 435 277 L 436 276 L 437 276 L 439 274 L 440 274 L 441 273 L 442 273 L 444 271 L 445 271 L 447 269 L 448 269 L 452 265 L 453 265 L 457 261 L 458 261 L 471 248 L 471 247 L 474 244 L 474 243 L 477 240 L 477 239 L 479 237 L 479 236 L 481 234 L 481 233 L 483 231 L 483 230 L 484 229 L 484 228 L 485 227 L 485 226 L 487 224 L 487 223 L 488 222 L 488 221 L 489 220 L 489 219 L 490 218 L 490 216 L 491 215 L 491 213 L 492 212 L 492 210 L 493 209 L 493 208 L 494 207 L 494 204 L 495 203 L 495 201 L 496 200 L 496 197 L 497 196 L 497 192 L 498 191 L 498 185 L 499 184 L 499 156 L 498 155 L 498 149 L 497 148 L 497 144 L 496 143 L 496 140 L 495 139 L 495 136 L 494 135 L 494 133 L 493 132 L 493 130 L 492 129 L 492 128 L 491 127 L 491 125 L 490 124 L 490 123 L 489 122 L 489 120 L 488 119 L 488 118 L 486 116 L 486 115 L 485 114 L 485 113 L 484 112 L 484 111 L 483 110 L 483 109 L 481 107 L 481 106 L 479 104 L 479 103 L 476 100 L 476 99 L 473 96 L 473 95 L 469 91 L 469 90 L 459 80 L 458 80 L 453 75 L 452 75 L 449 72 L 448 72 L 445 69 L 444 69 L 443 68 L 442 68 L 440 66 L 439 66 L 437 64 L 436 64 L 435 63 L 434 63 L 433 62 L 432 62 L 431 61 L 430 61 L 429 60 L 428 60 L 427 59 L 425 59 L 424 58 L 423 58 L 422 57 L 420 57 L 419 56 L 417 56 L 416 55 L 415 55 L 414 54 L 411 54 L 410 53 L 408 53 L 407 52 L 404 52 L 403 51 L 400 51 L 399 50 L 393 50 L 392 49 L 381 49 L 380 48 L 370 48 L 369 49 L 359 49 L 358 50 L 353 50 L 352 51 L 349 51 L 348 52 L 346 52 L 345 53 L 342 53 L 341 54 L 338 54 L 337 55 L 335 55 L 334 56 L 333 56 L 332 57 L 330 57 L 329 58 L 328 58 L 327 59 L 325 59 L 324 60 L 323 60 L 322 61 L 321 61 L 320 62 L 319 62 L 318 63 L 317 63 L 315 65 L 314 65 L 312 67 L 311 67 L 309 69 L 308 69 L 306 71 L 305 71 L 302 74 L 301 74 L 294 81 L 293 81 L 291 83 L 291 84 L 290 85 L 289 85 L 287 83 L 287 82 L 282 77 L 282 76 L 281 75 L 281 74 L 285 70 L 286 70 L 291 65 L 292 65 L 294 63 L 295 63 L 297 61 L 298 61 L 301 58 L 302 58 L 304 56 L 305 56 L 306 55 L 307 55 L 309 53 L 310 53 L 311 52 L 312 52 L 313 51 L 314 51 L 315 50 L 316 50 L 317 49 L 318 49 L 319 48 L 320 48 L 321 47 L 322 47 L 323 46 L 325 46 L 326 45 L 328 45 L 329 44 L 330 44 L 331 43 L 333 43 L 334 42 L 336 42 L 337 41 L 340 41 L 341 40 L 344 40 L 345 39 L 349 39 L 350 38 L 355 38 L 356 37 Z M 156 28 L 157 27 L 175 27 L 176 28 L 185 28 L 186 29 L 191 29 L 192 30 L 196 30 L 197 31 L 200 31 L 201 32 L 204 32 L 205 33 L 207 33 L 208 34 L 210 34 L 211 35 L 213 35 L 214 36 L 215 36 L 216 37 L 218 37 L 219 38 L 220 38 L 221 39 L 223 39 L 224 40 L 225 40 L 226 41 L 227 41 L 228 42 L 229 42 L 230 43 L 231 43 L 232 44 L 233 44 L 235 46 L 236 46 L 237 47 L 238 47 L 240 49 L 241 49 L 243 51 L 244 51 L 247 54 L 248 54 L 250 56 L 251 56 L 256 61 L 257 61 L 273 77 L 273 78 L 277 82 L 277 83 L 280 86 L 280 87 L 283 90 L 283 91 L 285 93 L 285 94 L 287 96 L 287 97 L 288 98 L 288 99 L 289 100 L 289 101 L 290 102 L 290 103 L 292 105 L 292 107 L 293 108 L 293 109 L 294 110 L 294 111 L 295 112 L 295 113 L 296 114 L 296 115 L 297 116 L 297 117 L 298 118 L 298 120 L 299 121 L 299 123 L 300 124 L 300 126 L 301 127 L 301 129 L 302 130 L 302 133 L 303 134 L 303 137 L 304 138 L 304 142 L 305 143 L 305 149 L 306 150 L 306 157 L 307 158 L 307 173 L 306 174 L 306 180 L 305 181 L 305 187 L 304 188 L 304 192 L 303 193 L 303 197 L 302 198 L 302 200 L 301 201 L 301 204 L 300 205 L 300 207 L 299 208 L 299 209 L 298 210 L 298 212 L 297 213 L 297 214 L 296 215 L 296 217 L 295 218 L 295 219 L 294 220 L 294 221 L 293 222 L 293 223 L 292 224 L 292 225 L 291 226 L 291 227 L 290 228 L 290 229 L 288 231 L 288 232 L 287 233 L 287 234 L 285 236 L 284 235 L 284 234 L 282 232 L 282 231 L 280 229 L 280 228 L 279 227 L 279 226 L 277 224 L 277 222 L 279 220 L 279 219 L 280 218 L 280 217 L 281 216 L 281 215 L 282 214 L 282 213 L 283 212 L 283 210 L 284 209 L 284 207 L 285 206 L 285 205 L 286 204 L 286 202 L 287 201 L 287 199 L 288 198 L 288 196 L 289 195 L 289 192 L 290 191 L 290 186 L 291 185 L 291 180 L 292 179 L 292 150 L 291 149 L 291 144 L 290 143 L 290 139 L 289 138 L 289 135 L 288 134 L 288 131 L 287 130 L 287 129 L 286 128 L 286 126 L 285 125 L 285 123 L 284 122 L 284 121 L 283 120 L 283 118 L 282 117 L 282 116 L 281 115 L 281 113 L 280 112 L 280 111 L 279 110 L 279 109 L 278 108 L 278 107 L 277 106 L 277 105 L 275 103 L 275 102 L 274 101 L 274 100 L 272 98 L 272 97 L 269 94 L 269 93 L 267 91 L 267 90 L 261 84 L 261 83 L 249 71 L 248 71 L 243 66 L 242 66 L 239 63 L 238 63 L 236 61 L 235 61 L 233 59 L 232 59 L 231 58 L 230 58 L 229 57 L 228 57 L 227 56 L 226 56 L 225 55 L 224 55 L 222 53 L 220 53 L 219 52 L 218 52 L 217 51 L 216 51 L 215 50 L 214 50 L 213 49 L 211 49 L 210 48 L 208 48 L 207 47 L 205 47 L 204 46 L 202 46 L 201 45 L 198 45 L 197 44 L 194 44 L 193 43 L 189 43 L 188 42 L 184 42 L 183 41 L 170 41 L 169 40 L 162 40 L 161 41 L 148 41 L 147 42 L 142 42 L 141 43 L 138 43 L 137 44 L 134 44 L 133 45 L 130 45 L 129 46 L 127 46 L 126 47 L 124 47 L 123 48 L 122 48 L 121 49 L 119 49 L 118 50 L 117 50 L 116 51 L 114 51 L 112 53 L 111 53 L 110 54 L 109 54 L 108 55 L 107 55 L 106 56 L 105 56 L 104 57 L 103 57 L 102 58 L 101 58 L 99 60 L 98 60 L 96 62 L 95 62 L 93 64 L 92 64 L 88 68 L 87 68 L 82 73 L 81 73 L 79 75 L 79 76 L 68 87 L 68 88 L 65 91 L 65 92 L 63 94 L 63 95 L 61 97 L 61 98 L 60 99 L 60 100 L 58 102 L 58 103 L 56 105 L 56 106 L 55 107 L 55 108 L 54 109 L 54 110 L 53 111 L 53 112 L 52 113 L 52 115 L 51 116 L 51 117 L 50 118 L 50 119 L 49 120 L 49 122 L 48 123 L 48 125 L 47 126 L 47 129 L 46 130 L 46 133 L 45 134 L 45 137 L 44 138 L 44 142 L 43 143 L 43 150 L 42 151 L 42 178 L 43 179 L 43 184 L 44 185 L 44 189 L 45 190 L 45 193 L 46 194 L 46 197 L 47 198 L 47 201 L 48 202 L 48 204 L 49 205 L 49 207 L 50 208 L 50 209 L 51 210 L 51 212 L 52 213 L 52 214 L 53 215 L 53 217 L 55 219 L 55 220 L 56 221 L 56 222 L 57 223 L 57 224 L 58 225 L 58 226 L 60 228 L 60 229 L 61 230 L 61 231 L 63 233 L 63 234 L 66 237 L 66 238 L 68 240 L 68 241 L 88 261 L 89 261 L 92 264 L 93 264 L 95 266 L 96 266 L 98 268 L 99 268 L 101 270 L 102 270 L 103 271 L 104 271 L 105 272 L 106 272 L 108 274 L 109 274 L 110 275 L 111 275 L 112 276 L 114 276 L 115 277 L 116 277 L 117 278 L 118 278 L 119 279 L 121 279 L 122 280 L 123 280 L 124 281 L 126 281 L 127 282 L 130 282 L 131 283 L 133 283 L 134 284 L 137 284 L 138 285 L 142 285 L 143 286 L 149 286 L 150 287 L 160 287 L 161 288 L 170 288 L 171 287 L 181 287 L 182 286 L 188 286 L 189 285 L 193 285 L 194 284 L 197 284 L 198 283 L 201 283 L 202 282 L 204 282 L 205 281 L 207 281 L 208 280 L 210 280 L 211 279 L 213 279 L 214 278 L 215 278 L 216 277 L 217 277 L 218 276 L 219 276 L 220 275 L 221 275 L 222 274 L 223 274 L 224 273 L 225 273 L 226 272 L 227 272 L 228 271 L 229 271 L 230 270 L 231 270 L 232 269 L 233 269 L 236 266 L 237 266 L 239 264 L 240 264 L 243 261 L 244 261 L 249 256 L 250 256 L 257 249 L 258 249 L 259 250 L 259 251 L 261 253 L 261 254 L 265 258 L 265 260 L 264 261 L 263 261 L 253 271 L 252 271 L 249 274 L 248 274 L 245 277 L 244 277 L 243 278 L 242 278 L 240 280 L 239 280 L 238 281 L 237 281 L 235 283 L 234 283 L 233 284 L 232 284 L 231 285 L 230 285 L 229 286 L 228 286 L 227 287 L 226 287 L 225 288 L 224 288 L 223 289 L 221 289 L 220 290 L 219 290 L 218 291 L 217 291 L 216 292 L 214 292 L 213 293 L 211 293 L 210 294 L 208 294 L 207 295 L 206 295 L 205 296 L 202 296 L 201 297 L 198 297 L 197 298 L 193 298 L 192 299 L 188 299 L 187 300 L 180 300 L 179 301 L 153 301 L 152 300 L 146 300 L 145 299 L 140 299 L 139 298 L 136 298 L 135 297 L 132 297 L 131 296 L 128 296 L 127 295 L 125 295 L 124 294 L 122 294 L 121 293 L 120 293 L 119 292 L 117 292 L 116 291 L 115 291 L 114 290 L 112 290 L 111 289 L 110 289 L 109 288 L 108 288 L 107 287 L 106 287 L 105 286 L 104 286 L 103 285 L 102 285 L 101 284 L 100 284 L 99 283 L 98 283 L 97 282 L 96 282 L 95 281 L 94 281 L 92 279 L 91 279 L 89 277 L 88 277 L 85 274 L 84 274 L 82 272 L 81 272 L 78 269 L 77 269 L 70 262 L 69 262 L 67 260 L 67 259 L 58 250 L 58 249 L 54 245 L 54 244 L 51 241 L 51 240 L 49 238 L 49 237 L 47 235 L 47 234 L 46 233 L 46 232 L 44 230 L 44 229 L 43 228 L 43 227 L 42 226 L 42 225 L 41 224 L 41 222 L 40 221 L 40 220 L 39 219 L 39 218 L 38 217 L 38 216 L 37 215 L 37 213 L 36 212 L 36 211 L 35 210 L 35 208 L 34 207 L 34 205 L 33 204 L 33 201 L 32 200 L 32 198 L 31 197 L 31 193 L 30 192 L 30 187 L 29 186 L 29 180 L 28 179 L 28 150 L 29 149 L 29 142 L 30 141 L 30 137 L 31 136 L 31 132 L 32 131 L 32 129 L 33 128 L 33 126 L 34 125 L 34 123 L 35 122 L 35 120 L 36 119 L 36 117 L 37 116 L 37 115 L 38 114 L 38 113 L 39 112 L 39 110 L 40 109 L 40 108 L 41 107 L 41 106 L 42 105 L 42 104 L 43 103 L 43 102 L 44 101 L 44 100 L 45 99 L 45 98 L 47 96 L 47 95 L 48 94 L 48 93 L 50 91 L 50 90 L 52 88 L 52 87 L 54 85 L 54 84 L 59 79 L 59 78 L 66 71 L 66 70 L 71 65 L 72 65 L 79 58 L 80 58 L 83 55 L 84 55 L 86 53 L 87 53 L 89 51 L 90 51 L 92 49 L 93 49 L 95 47 L 96 47 L 97 46 L 98 46 L 100 44 L 101 44 L 102 43 L 103 43 L 104 42 L 105 42 L 106 41 L 107 41 L 108 40 L 109 40 L 110 39 L 112 39 L 113 38 L 114 38 L 115 37 L 117 37 L 118 36 L 120 36 L 121 35 L 122 35 L 123 34 L 125 34 L 126 33 L 129 33 L 130 32 L 132 32 L 133 31 L 137 31 L 138 30 L 141 30 L 142 29 L 147 29 L 148 28 Z" fill="black" fill-rule="evenodd" /></svg>