<svg xmlns="http://www.w3.org/2000/svg" width="1024" height="1024" viewBox="0 0 1024 1024" fill="none">
  <g fill="#000000" fill-rule="evenodd">
    <path d="M 590 343 L 589 344 L 595 353 L 616 379 L 629 391 L 639 397 L 640 396 L 616 374 L 603 359 L 594 346 Z M 567 335 L 569 346 L 576 367 L 586 390 L 599 427 L 600 426 L 600 421 L 598 417 L 596 407 L 575 355 L 575 352 L 573 349 L 569 336 Z M 379 125 L 374 128 L 373 130 L 375 138 L 369 140 L 368 142 L 373 150 L 381 156 L 388 165 L 387 181 L 389 185 L 394 208 L 397 215 L 397 219 L 385 255 L 376 273 L 372 284 L 370 286 L 363 282 L 361 282 L 359 279 L 359 275 L 364 269 L 367 262 L 366 238 L 368 235 L 368 229 L 366 224 L 366 220 L 359 214 L 354 214 L 351 216 L 344 215 L 336 220 L 330 219 L 324 224 L 323 231 L 320 237 L 320 244 L 323 249 L 323 259 L 330 268 L 337 272 L 338 281 L 325 289 L 309 296 L 294 313 L 272 334 L 271 332 L 272 331 L 272 324 L 273 323 L 275 302 L 276 301 L 275 287 L 273 286 L 273 282 L 278 269 L 281 273 L 288 273 L 293 269 L 293 267 L 287 263 L 286 252 L 292 246 L 294 242 L 293 237 L 294 227 L 292 225 L 283 225 L 274 227 L 272 229 L 273 247 L 270 250 L 262 267 L 257 285 L 252 289 L 251 294 L 249 297 L 248 306 L 242 331 L 237 366 L 236 367 L 236 382 L 241 388 L 248 388 L 255 385 L 276 372 L 310 349 L 311 350 L 311 412 L 314 414 L 324 411 L 326 412 L 326 424 L 327 425 L 327 438 L 328 439 L 329 456 L 330 457 L 330 463 L 331 464 L 331 470 L 332 471 L 332 477 L 333 478 L 338 513 L 340 518 L 344 541 L 351 569 L 362 603 L 361 608 L 329 660 L 333 667 L 333 669 L 327 676 L 324 676 L 319 680 L 315 686 L 316 690 L 351 725 L 357 729 L 362 728 L 360 720 L 354 710 L 339 691 L 345 684 L 350 688 L 354 689 L 362 675 L 376 655 L 379 660 L 379 663 L 385 678 L 392 680 L 392 687 L 390 693 L 390 696 L 392 700 L 394 701 L 404 701 L 408 699 L 425 699 L 426 698 L 441 697 L 448 694 L 447 690 L 442 688 L 417 683 L 414 684 L 409 683 L 407 677 L 408 675 L 414 671 L 414 666 L 409 648 L 403 617 L 449 555 L 460 538 L 459 533 L 450 516 L 429 463 L 405 415 L 406 412 L 415 411 L 416 409 L 409 381 L 414 379 L 418 379 L 427 375 L 431 375 L 439 378 L 444 378 L 461 382 L 476 383 L 489 386 L 499 386 L 509 382 L 523 370 L 528 382 L 532 388 L 514 403 L 490 419 L 473 428 L 467 430 L 465 429 L 464 413 L 460 401 L 458 399 L 452 399 L 446 402 L 444 404 L 445 415 L 452 429 L 452 431 L 447 439 L 447 442 L 452 446 L 460 446 L 461 445 L 463 447 L 464 455 L 459 460 L 459 464 L 462 466 L 468 466 L 474 461 L 473 456 L 471 456 L 467 453 L 467 445 L 496 433 L 525 416 L 527 417 L 521 440 L 521 453 L 520 454 L 521 456 L 520 457 L 520 469 L 521 470 L 521 519 L 522 520 L 522 530 L 523 531 L 525 550 L 534 591 L 539 625 L 545 650 L 551 664 L 555 667 L 561 667 L 564 666 L 570 661 L 577 664 L 584 664 L 590 660 L 593 662 L 598 662 L 602 659 L 608 664 L 608 674 L 604 684 L 593 696 L 586 701 L 577 705 L 575 708 L 577 710 L 581 710 L 587 708 L 604 706 L 610 704 L 625 689 L 627 690 L 629 699 L 632 698 L 631 681 L 634 677 L 634 674 L 632 670 L 627 667 L 625 658 L 626 657 L 633 657 L 639 654 L 644 649 L 647 651 L 658 650 L 662 648 L 667 643 L 668 640 L 670 639 L 677 645 L 685 659 L 689 675 L 688 693 L 691 695 L 695 691 L 703 675 L 703 647 L 705 646 L 716 653 L 718 651 L 715 647 L 705 639 L 696 635 L 691 629 L 700 624 L 707 617 L 710 610 L 714 610 L 718 608 L 721 605 L 724 599 L 725 593 L 735 586 L 738 581 L 739 575 L 747 567 L 751 559 L 754 550 L 753 540 L 747 532 L 734 519 L 720 509 L 714 506 L 694 500 L 680 492 L 656 470 L 639 452 L 631 441 L 640 436 L 645 431 L 650 422 L 656 403 L 668 392 L 668 388 L 666 386 L 654 381 L 646 375 L 628 354 L 608 326 L 593 311 L 553 282 L 541 269 L 540 263 L 538 261 L 534 260 L 533 257 L 529 253 L 521 253 L 517 256 L 514 254 L 508 254 L 504 258 L 503 261 L 500 264 L 498 264 L 493 270 L 494 282 L 497 285 L 500 293 L 500 301 L 509 313 L 513 315 L 520 314 L 522 316 L 523 320 L 523 328 L 515 346 L 508 354 L 504 361 L 498 367 L 435 365 L 431 364 L 418 351 L 415 352 L 413 355 L 416 357 L 415 358 L 412 358 L 411 356 L 407 357 L 404 356 L 401 316 L 409 298 L 421 258 L 423 247 L 428 232 L 428 228 L 430 224 L 430 214 L 421 193 L 411 165 L 404 159 L 401 149 L 401 145 L 399 141 L 399 135 L 397 128 L 396 127 L 390 128 L 388 125 L 384 126 Z M 395 680 L 397 678 L 404 677 L 405 678 L 405 685 L 404 686 L 397 686 Z M 623 676 L 625 682 L 609 699 L 607 699 L 606 697 L 603 696 L 602 697 L 603 700 L 601 701 L 599 697 L 607 686 L 611 678 L 620 678 Z M 336 671 L 343 680 L 337 687 L 331 679 L 331 677 Z M 621 660 L 624 671 L 620 674 L 613 675 L 612 674 L 612 665 L 611 664 L 612 663 L 617 663 Z M 690 638 L 693 638 L 697 641 L 698 659 L 699 660 L 699 671 L 697 673 L 694 672 L 691 669 L 689 659 L 684 650 L 684 647 Z M 686 631 L 688 633 L 688 635 L 681 644 L 676 639 L 680 637 Z M 387 496 L 398 514 L 414 536 L 394 561 L 392 554 L 390 529 L 389 528 L 387 504 L 386 503 L 386 497 Z M 464 461 L 465 459 L 469 460 L 466 462 Z M 451 415 L 454 415 L 459 412 L 461 413 L 461 419 L 462 420 L 462 428 L 461 429 L 456 429 L 454 427 L 450 418 Z M 459 407 L 458 410 L 455 410 L 451 412 L 448 411 L 448 408 L 452 407 L 454 405 L 457 405 Z M 559 367 L 563 387 L 572 415 L 583 438 L 583 440 L 588 447 L 590 447 L 599 441 L 607 441 L 612 443 L 624 442 L 625 441 L 630 446 L 638 458 L 675 494 L 692 504 L 709 509 L 721 515 L 734 525 L 749 542 L 749 544 L 743 548 L 748 553 L 746 561 L 741 567 L 738 568 L 736 566 L 732 566 L 730 569 L 735 575 L 733 581 L 728 586 L 726 586 L 724 584 L 721 584 L 719 586 L 719 590 L 721 592 L 719 600 L 714 605 L 712 605 L 710 601 L 707 601 L 705 604 L 706 611 L 698 620 L 691 623 L 688 619 L 685 619 L 683 621 L 684 628 L 680 632 L 672 636 L 669 631 L 666 630 L 664 632 L 664 637 L 665 638 L 664 641 L 661 644 L 653 647 L 648 647 L 645 644 L 644 638 L 640 638 L 639 648 L 632 653 L 627 652 L 624 645 L 620 645 L 619 647 L 620 654 L 615 659 L 608 658 L 604 654 L 603 650 L 601 650 L 600 655 L 597 658 L 595 658 L 592 656 L 592 651 L 590 649 L 588 649 L 587 650 L 587 656 L 582 660 L 576 659 L 571 652 L 568 652 L 566 655 L 567 658 L 563 662 L 556 662 L 553 659 L 550 652 L 540 606 L 536 577 L 529 547 L 526 517 L 525 516 L 525 440 L 532 413 L 538 407 L 546 402 L 554 392 L 557 378 L 557 371 Z M 521 365 L 505 380 L 499 382 L 488 382 L 487 381 L 442 375 L 431 372 L 426 372 L 415 375 L 414 374 L 417 371 L 415 366 L 411 363 L 412 362 L 419 363 L 420 362 L 419 360 L 420 357 L 428 366 L 433 368 L 455 369 L 456 370 L 498 371 L 503 368 L 517 349 Z M 522 348 L 533 351 L 536 354 L 536 376 L 534 386 L 522 357 L 522 352 L 521 351 Z M 532 305 L 534 307 L 536 313 L 541 319 L 542 326 L 546 331 L 551 333 L 554 338 L 555 363 L 554 364 L 552 386 L 549 393 L 539 403 L 507 423 L 480 436 L 469 439 L 464 442 L 459 442 L 458 443 L 452 442 L 451 439 L 452 436 L 455 433 L 458 434 L 470 433 L 489 424 L 512 409 L 537 389 L 539 383 L 539 349 L 520 344 L 527 326 L 526 317 L 524 312 Z M 329 291 L 334 297 L 340 301 L 343 301 L 345 298 L 348 301 L 348 316 L 347 317 L 348 381 L 358 391 L 361 389 L 365 381 L 366 373 L 360 349 L 356 319 L 353 306 L 353 299 L 354 298 L 360 298 L 368 291 L 370 292 L 371 313 L 373 321 L 377 357 L 380 372 L 389 402 L 388 403 L 359 402 L 358 401 L 340 400 L 339 399 L 338 384 L 337 383 L 337 371 L 333 354 L 330 326 L 329 325 L 329 316 L 328 315 L 327 293 Z M 255 294 L 258 289 L 270 289 L 272 294 L 268 296 L 267 295 L 266 296 L 265 295 L 256 295 Z M 354 291 L 354 289 L 358 285 L 361 285 L 365 288 L 361 293 L 357 293 Z M 331 290 L 339 285 L 341 285 L 346 289 L 341 296 L 339 296 Z M 519 278 L 524 283 L 527 283 L 529 285 L 528 290 L 532 297 L 532 301 L 523 308 L 517 311 L 513 311 L 508 306 L 504 299 L 501 284 L 511 282 Z M 535 270 L 537 270 L 541 276 L 551 286 L 588 313 L 607 332 L 627 360 L 645 380 L 664 390 L 654 399 L 649 409 L 649 412 L 644 425 L 635 434 L 622 438 L 597 437 L 589 443 L 587 441 L 570 397 L 560 354 L 558 336 L 554 323 L 533 280 L 532 273 Z M 283 259 L 284 260 L 284 265 L 279 269 L 278 266 Z M 277 247 L 280 251 L 284 252 L 279 258 L 276 264 L 269 285 L 268 286 L 262 286 L 261 282 L 266 267 Z M 354 233 L 362 238 L 364 256 L 363 257 L 363 263 L 358 269 L 352 269 L 348 265 L 346 265 L 346 268 L 357 276 L 356 282 L 354 284 L 347 285 L 341 281 L 341 273 L 334 260 L 336 257 L 336 250 L 339 247 L 339 243 L 343 240 L 346 235 L 352 235 Z M 275 233 L 276 232 L 278 233 L 289 232 L 290 237 L 285 239 L 277 239 Z M 407 167 L 393 173 L 390 171 L 391 169 L 402 164 L 404 164 Z M 394 136 L 401 161 L 394 165 L 392 165 L 385 154 L 374 145 L 375 144 L 383 146 L 390 145 L 393 143 L 393 137 Z M 388 131 L 392 133 L 392 140 L 391 141 L 388 138 L 387 134 Z M 382 131 L 384 131 L 386 133 L 387 138 L 386 142 L 384 141 L 381 133 Z M 378 131 L 381 136 L 380 141 L 377 134 Z"/>
  </g>
</svg>
