<svg xmlns="http://www.w3.org/2000/svg" viewBox="0 0 256 256" fill="none">
  <g stroke="#111111" stroke-width="10" stroke-linecap="round" stroke-linejoin="round">
    <ellipse cx="128" cy="58" rx="32" ry="12" />
    <path d="M96 58v24c0 6 14 12 32 12s32-6 32-12V58" />
    <path d="M66 104h124" />
    <path d="M66 104v34c0 9 28 16 62 16s62-7 62-16v-34" />
    <path d="M42 164h172" />
    <path d="M42 164v40c0 10 38 18 86 18s86-8 86-18v-40" />
    <path d="M82 124c6 10 16 10 22 0 6 10 16 10 22 0 6 10 16 10 22 0 6 10 16 10 22 0" />
    <path d="M62 186c8 12 20 12 28 0 8 12 20 12 28 0 8 12 20 12 28 0 8 12 20 12 28 0 8 12 20 12 28 0" />
  </g>
</svg>
