<svg xmlns="http://www.w3.org/2000/svg" width="216" height="405" viewBox="0 0 216 405">
  <path d="M 81 77 L 80 78 L 65 78 L 64 79 L 56 79 L 55 80 L 51 80 L 50 81 L 47 81 L 46 82 L 44 82 L 43 83 L 42 83 L 41 84 L 40 84 L 39 85 L 38 85 L 36 87 L 36 88 L 35 89 L 35 94 L 36 95 L 36 101 L 37 102 L 37 106 L 38 107 L 38 111 L 39 112 L 39 115 L 40 116 L 40 118 L 41 119 L 41 121 L 42 122 L 42 124 L 43 125 L 43 126 L 44 127 L 44 129 L 45 130 L 45 131 L 46 132 L 46 133 L 47 134 L 47 135 L 48 136 L 48 137 L 50 139 L 50 140 L 52 142 L 52 143 L 55 146 L 55 147 L 67 159 L 68 159 L 71 162 L 72 162 L 74 164 L 75 164 L 76 165 L 77 165 L 78 166 L 79 166 L 81 168 L 82 168 L 83 169 L 84 169 L 85 170 L 87 170 L 88 171 L 90 171 L 91 172 L 93 172 L 94 173 L 98 173 L 99 174 L 116 174 L 117 173 L 120 173 L 121 172 L 123 172 L 124 171 L 126 171 L 127 170 L 129 170 L 130 169 L 131 169 L 132 168 L 133 168 L 134 167 L 135 167 L 137 165 L 138 165 L 140 163 L 141 163 L 143 161 L 144 161 L 149 156 L 150 156 L 153 153 L 153 152 L 159 146 L 159 145 L 162 142 L 162 141 L 164 139 L 164 138 L 166 136 L 166 135 L 167 134 L 167 133 L 168 132 L 168 131 L 170 129 L 170 128 L 171 127 L 171 125 L 172 124 L 172 123 L 173 122 L 173 120 L 174 119 L 174 117 L 175 116 L 175 113 L 176 112 L 176 109 L 177 108 L 177 104 L 178 103 L 178 97 L 179 96 L 179 88 L 178 87 L 178 86 L 176 84 L 175 84 L 174 83 L 173 83 L 172 82 L 171 82 L 170 81 L 168 81 L 167 80 L 165 80 L 164 79 L 161 79 L 160 78 L 152 78 L 151 77 Z M 124 83 L 125 82 L 126 83 L 128 83 L 129 82 L 143 82 L 144 83 L 154 83 L 155 84 L 160 84 L 161 85 L 165 85 L 166 86 L 169 86 L 170 87 L 171 87 L 172 88 L 173 88 L 174 89 L 174 90 L 172 92 L 170 92 L 169 93 L 168 93 L 167 94 L 164 94 L 163 95 L 159 95 L 158 96 L 153 96 L 152 97 L 146 97 L 145 98 L 137 98 L 136 99 L 127 99 L 126 100 L 108 100 L 107 101 L 71 101 L 70 100 L 62 100 L 61 99 L 56 99 L 55 98 L 51 98 L 50 97 L 47 97 L 46 96 L 44 96 L 43 95 L 42 95 L 39 92 L 39 91 L 41 89 L 42 89 L 43 88 L 45 88 L 46 87 L 50 87 L 51 86 L 57 86 L 58 85 L 68 85 L 69 84 L 86 84 L 87 83 Z M 82 20 L 81 21 L 70 21 L 69 22 L 62 22 L 61 23 L 57 23 L 56 24 L 53 24 L 52 25 L 49 25 L 48 26 L 45 26 L 44 27 L 42 27 L 41 28 L 40 28 L 39 29 L 37 29 L 36 30 L 35 30 L 34 31 L 33 31 L 32 32 L 31 32 L 30 33 L 29 33 L 27 35 L 26 35 L 24 37 L 24 38 L 23 39 L 23 41 L 22 42 L 22 47 L 21 48 L 21 57 L 20 58 L 20 104 L 21 105 L 21 111 L 22 112 L 22 115 L 23 116 L 23 119 L 24 120 L 24 123 L 25 124 L 25 126 L 26 127 L 26 129 L 27 130 L 27 132 L 28 133 L 28 134 L 29 135 L 29 136 L 30 137 L 30 138 L 31 139 L 31 140 L 32 141 L 32 142 L 34 144 L 34 145 L 35 146 L 35 147 L 37 149 L 37 150 L 40 153 L 40 154 L 44 158 L 44 159 L 48 163 L 49 163 L 56 170 L 57 170 L 60 173 L 61 173 L 63 175 L 64 175 L 66 177 L 67 177 L 68 178 L 69 178 L 71 180 L 72 180 L 73 181 L 74 181 L 75 182 L 76 182 L 77 183 L 78 183 L 79 184 L 81 184 L 82 185 L 83 185 L 84 186 L 85 186 L 86 187 L 88 187 L 89 188 L 90 188 L 91 189 L 91 190 L 92 191 L 92 194 L 93 195 L 93 216 L 94 217 L 94 247 L 93 248 L 93 267 L 94 268 L 94 309 L 93 310 L 93 339 L 92 340 L 92 341 L 91 342 L 78 342 L 77 343 L 68 343 L 67 344 L 61 344 L 60 345 L 54 345 L 53 346 L 50 346 L 49 347 L 46 347 L 45 348 L 43 348 L 42 349 L 41 349 L 40 350 L 39 350 L 38 351 L 37 351 L 36 352 L 35 352 L 29 358 L 29 359 L 28 360 L 28 366 L 29 367 L 29 368 L 33 372 L 34 372 L 36 374 L 37 374 L 38 375 L 40 375 L 41 376 L 43 376 L 44 377 L 46 377 L 47 378 L 50 378 L 51 379 L 54 379 L 55 380 L 59 380 L 60 381 L 66 381 L 67 382 L 75 382 L 76 383 L 91 383 L 92 384 L 121 384 L 122 383 L 141 383 L 142 382 L 152 382 L 153 381 L 158 381 L 159 380 L 163 380 L 164 379 L 167 379 L 168 378 L 170 378 L 171 377 L 173 377 L 174 376 L 175 376 L 176 375 L 177 375 L 178 374 L 179 374 L 181 372 L 182 372 L 185 369 L 185 368 L 186 367 L 186 360 L 185 359 L 185 358 L 182 355 L 181 355 L 179 353 L 178 353 L 177 352 L 176 352 L 175 351 L 174 351 L 173 350 L 172 350 L 171 349 L 169 349 L 168 348 L 166 348 L 165 347 L 162 347 L 161 346 L 158 346 L 157 345 L 152 345 L 151 344 L 145 344 L 144 343 L 135 343 L 134 342 L 122 342 L 121 341 L 121 340 L 120 339 L 120 334 L 119 333 L 119 327 L 118 326 L 118 316 L 119 315 L 119 281 L 118 280 L 118 224 L 119 223 L 119 202 L 118 201 L 118 200 L 119 199 L 119 192 L 122 189 L 124 189 L 125 188 L 127 188 L 128 187 L 129 187 L 130 186 L 132 186 L 133 185 L 134 185 L 135 184 L 136 184 L 137 183 L 138 183 L 139 182 L 141 182 L 143 180 L 144 180 L 145 179 L 146 179 L 148 177 L 149 177 L 151 175 L 152 175 L 155 172 L 156 172 L 159 169 L 160 169 L 170 159 L 170 158 L 174 154 L 174 153 L 176 151 L 176 150 L 178 148 L 178 147 L 180 145 L 180 144 L 181 143 L 181 142 L 182 141 L 182 140 L 184 138 L 184 137 L 185 136 L 185 134 L 186 133 L 186 132 L 187 131 L 187 129 L 188 128 L 188 126 L 189 125 L 189 124 L 190 123 L 190 120 L 191 119 L 191 116 L 192 115 L 192 112 L 193 111 L 193 105 L 194 104 L 194 93 L 195 92 L 195 86 L 194 85 L 194 64 L 193 63 L 193 57 L 192 56 L 192 51 L 191 50 L 191 46 L 190 45 L 190 42 L 189 41 L 189 40 L 188 39 L 188 38 L 186 36 L 185 36 L 183 34 L 182 34 L 181 33 L 180 33 L 179 32 L 178 32 L 177 31 L 175 31 L 174 30 L 173 30 L 172 29 L 170 29 L 169 28 L 167 28 L 166 27 L 163 27 L 162 26 L 160 26 L 159 25 L 155 25 L 154 24 L 151 24 L 150 23 L 146 23 L 145 22 L 140 22 L 139 21 L 133 21 L 132 20 Z M 74 350 L 75 349 L 82 349 L 83 350 L 81 352 L 81 353 L 79 355 L 79 357 L 78 358 L 78 360 L 80 362 L 83 362 L 84 363 L 89 363 L 90 364 L 101 364 L 102 365 L 112 365 L 113 364 L 121 364 L 122 363 L 128 363 L 129 362 L 132 362 L 133 361 L 134 361 L 134 360 L 135 359 L 135 357 L 134 356 L 134 355 L 133 354 L 133 353 L 130 350 L 131 349 L 137 349 L 138 350 L 148 350 L 149 351 L 154 351 L 155 352 L 159 352 L 160 353 L 162 353 L 163 354 L 166 354 L 167 355 L 169 355 L 170 356 L 171 356 L 172 357 L 173 357 L 174 358 L 175 358 L 179 362 L 179 365 L 176 368 L 175 368 L 174 369 L 173 369 L 172 370 L 171 370 L 170 371 L 168 371 L 167 372 L 165 372 L 164 373 L 161 373 L 160 374 L 155 374 L 154 375 L 148 375 L 147 376 L 136 376 L 135 377 L 83 377 L 82 376 L 72 376 L 71 375 L 65 375 L 64 374 L 59 374 L 58 373 L 54 373 L 53 372 L 50 372 L 49 371 L 46 371 L 45 370 L 43 370 L 42 369 L 41 369 L 40 368 L 39 368 L 35 364 L 35 361 L 38 358 L 39 358 L 40 357 L 41 357 L 42 356 L 43 356 L 44 355 L 45 355 L 46 354 L 48 354 L 49 353 L 52 353 L 53 352 L 56 352 L 57 351 L 63 351 L 64 350 Z M 29 44 L 30 43 L 31 43 L 32 44 L 33 44 L 34 45 L 35 45 L 36 46 L 38 46 L 39 47 L 41 47 L 42 48 L 43 48 L 44 49 L 47 49 L 48 50 L 50 50 L 51 51 L 54 51 L 55 52 L 58 52 L 59 53 L 63 53 L 64 54 L 68 54 L 69 55 L 79 55 L 80 56 L 93 56 L 94 57 L 112 57 L 113 56 L 128 56 L 129 55 L 137 55 L 138 54 L 144 54 L 145 53 L 150 53 L 151 52 L 155 52 L 156 51 L 159 51 L 160 50 L 163 50 L 164 49 L 166 49 L 167 48 L 169 48 L 170 47 L 172 47 L 173 46 L 175 46 L 176 45 L 177 45 L 178 44 L 179 44 L 180 43 L 182 43 L 184 45 L 184 48 L 185 49 L 185 53 L 186 54 L 186 61 L 187 62 L 187 74 L 188 75 L 188 100 L 187 101 L 187 107 L 186 108 L 186 112 L 185 113 L 185 116 L 184 117 L 184 119 L 183 120 L 183 122 L 182 123 L 182 125 L 181 126 L 181 127 L 180 128 L 180 130 L 179 131 L 179 132 L 178 133 L 178 134 L 177 135 L 177 136 L 175 138 L 175 139 L 174 140 L 174 141 L 173 142 L 173 143 L 171 145 L 171 146 L 169 148 L 169 149 L 165 153 L 165 154 L 155 164 L 154 164 L 149 169 L 148 169 L 146 171 L 145 171 L 144 172 L 143 172 L 141 174 L 140 174 L 139 175 L 138 175 L 137 176 L 136 176 L 134 178 L 133 178 L 132 179 L 130 179 L 129 180 L 128 180 L 127 181 L 125 181 L 124 182 L 122 182 L 121 183 L 120 183 L 119 184 L 117 184 L 116 185 L 115 185 L 114 186 L 114 187 L 113 188 L 113 192 L 112 193 L 112 329 L 113 330 L 113 337 L 114 338 L 114 341 L 115 342 L 115 344 L 121 350 L 122 350 L 125 353 L 126 353 L 129 356 L 129 358 L 128 359 L 124 359 L 123 360 L 117 360 L 116 361 L 95 361 L 94 360 L 84 360 L 82 358 L 82 357 L 87 352 L 88 352 L 90 350 L 91 350 L 92 349 L 93 349 L 98 344 L 98 342 L 99 341 L 99 313 L 100 312 L 100 267 L 99 266 L 99 253 L 100 252 L 100 213 L 99 212 L 99 192 L 98 191 L 98 187 L 97 186 L 97 185 L 95 183 L 94 183 L 93 182 L 91 182 L 90 181 L 89 181 L 88 180 L 87 180 L 86 179 L 85 179 L 84 178 L 83 178 L 82 177 L 80 177 L 79 176 L 78 176 L 76 174 L 75 174 L 74 173 L 73 173 L 72 172 L 71 172 L 69 170 L 68 170 L 66 168 L 65 168 L 62 165 L 61 165 L 44 148 L 44 147 L 42 145 L 42 144 L 40 142 L 40 141 L 39 140 L 39 139 L 37 137 L 37 136 L 36 135 L 36 134 L 35 133 L 35 132 L 34 131 L 34 129 L 33 128 L 33 127 L 32 126 L 32 124 L 31 123 L 31 121 L 30 120 L 30 117 L 29 116 L 29 113 L 28 112 L 28 108 L 27 107 L 27 102 L 26 101 L 26 66 L 27 65 L 27 52 L 28 51 L 28 46 L 29 45 Z M 96 27 L 97 26 L 125 26 L 126 27 L 136 27 L 137 28 L 141 28 L 142 29 L 146 29 L 147 30 L 151 30 L 152 31 L 156 31 L 157 32 L 160 32 L 161 33 L 163 33 L 164 34 L 167 34 L 168 35 L 170 35 L 171 36 L 173 36 L 174 37 L 175 37 L 176 38 L 177 38 L 179 40 L 178 41 L 177 41 L 176 42 L 175 42 L 174 43 L 172 43 L 171 44 L 170 44 L 169 45 L 166 45 L 165 46 L 163 46 L 162 47 L 158 47 L 157 48 L 153 48 L 152 49 L 146 49 L 145 50 L 138 50 L 137 51 L 127 51 L 126 52 L 81 52 L 80 51 L 73 51 L 72 50 L 67 50 L 66 49 L 61 49 L 60 48 L 56 48 L 55 47 L 52 47 L 51 46 L 48 46 L 47 45 L 44 45 L 43 44 L 41 44 L 40 43 L 38 43 L 37 42 L 36 42 L 35 41 L 34 41 L 32 39 L 33 38 L 34 38 L 35 37 L 36 37 L 37 36 L 38 36 L 39 35 L 41 35 L 42 34 L 43 34 L 44 33 L 46 33 L 47 32 L 50 32 L 51 31 L 54 31 L 55 30 L 60 30 L 61 29 L 67 29 L 68 28 L 78 28 L 79 27 Z" fill="#000" fill-rule="evenodd"/>
</svg>
